HIERARCHY
ROOT joint_Root
{
	OFFSET 0.0 0.0 0.0
	CHANNELS 6 Xposition Yposition Zposition Zrotation Xrotation Yrotation 
	JOINT Hips
	{
		OFFSET -0.726466 93.3139 -2.00062
		CHANNELS 6 Xposition Yposition Zposition Zrotation Xrotation Yrotation 
		JOINT Spine
		{
			OFFSET 15.7357 0.0 0.0
			CHANNELS 6 Xposition Yposition Zposition Zrotation Xrotation Yrotation 
			JOINT Chest
			{
				OFFSET 8.98455 -0.406207 0.0
				CHANNELS 6 Xposition Yposition Zposition Zrotation Xrotation Yrotation 
				JOINT Neck
				{
					OFFSET 16.3773 0.0 0.0
					CHANNELS 6 Xposition Yposition Zposition Zrotation Xrotation Yrotation 
					JOINT Head
					{
						OFFSET 6.45672 0.0 0.0
						CHANNELS 6 Xposition Yposition Zposition Zrotation Xrotation Yrotation 
						End Site
						{
							OFFSET 0.0 0.0 0.0
						}
					}
				}
				JOINT Shoulder_L
				{
					OFFSET 12.9942 -0.242716 4.98039
					CHANNELS 6 Xposition Yposition Zposition Zrotation Xrotation Yrotation 
					JOINT UpperArm_L
					{
						OFFSET 5.34809 0.0 0.0
						CHANNELS 6 Xposition Yposition Zposition Zrotation Xrotation Yrotation 
						JOINT LowerArm_L
						{
							OFFSET 24.3286 1.87007e-05 0.0
							CHANNELS 6 Xposition Yposition Zposition Zrotation Xrotation Yrotation 
							JOINT Hand_L
							{
								OFFSET 22.2916 0.0 0.0
								CHANNELS 6 Xposition Yposition Zposition Zrotation Xrotation Yrotation 
								End Site
								{
									OFFSET 0.0 0.0 0.0
								}
							}
						}
					}
				}
				JOINT Shoulder_R
				{
					OFFSET 12.9945 -0.242716 -4.98039
					CHANNELS 6 Xposition Yposition Zposition Zrotation Xrotation Yrotation 
					JOINT UpperArm_R
					{
						OFFSET -5.34813 0.0 0.0
						CHANNELS 6 Xposition Yposition Zposition Zrotation Xrotation Yrotation 
						JOINT LowerArm_R
						{
							OFFSET -24.3289 0.000322201 0.0
							CHANNELS 6 Xposition Yposition Zposition Zrotation Xrotation Yrotation 
							JOINT Hand_R
							{
								OFFSET -22.2915 -0.000108084 0.0
								CHANNELS 6 Xposition Yposition Zposition Zrotation Xrotation Yrotation 
								End Site
								{
									OFFSET 0.0 0.0 0.0
								}
							}
						}
					}
				}
			}
		}
		JOINT UpperLeg_L
		{
			OFFSET -2.19248 -6.46944 0.0
			CHANNELS 6 Xposition Yposition Zposition Zrotation Xrotation Yrotation 
			JOINT LowerLeg_L
			{
				OFFSET 39.0811 0.0 -1.23785e-05
				CHANNELS 6 Xposition Yposition Zposition Zrotation Xrotation Yrotation 
				JOINT Foot_L
				{
					OFFSET 40.9854 0.0 -1.26872e-05
					CHANNELS 6 Xposition Yposition Zposition Zrotation Xrotation Yrotation 
					JOINT Toes_L
					{
						OFFSET 11.7543 0.0 0.0
						CHANNELS 6 Xposition Yposition Zposition Zrotation Xrotation Yrotation 
						End Site
						{
							OFFSET 0.0 0.0 0.0
						}
					}
				}
			}
		}
		JOINT UpperLeg_R
		{
			OFFSET -2.19251 6.46944 0.0
			CHANNELS 6 Xposition Yposition Zposition Zrotation Xrotation Yrotation 
			JOINT LowerLeg_R
			{
				OFFSET -39.0811 -0.00228153 -0.0401928
				CHANNELS 6 Xposition Yposition Zposition Zrotation Xrotation Yrotation 
				JOINT Foot_R
				{
					OFFSET -40.9854 0.0 0.0
					CHANNELS 6 Xposition Yposition Zposition Zrotation Xrotation Yrotation 
					JOINT Toes_R
					{
						OFFSET -11.7543 0.0 0.0
						CHANNELS 6 Xposition Yposition Zposition Zrotation Xrotation Yrotation 
						End Site
						{
							OFFSET 0.0 0.0 0.0
						}
					}
				}
			}
		}
	}
}
MOTION
Frames:	4
Frame Time:	0.0333333
0.000000 0.000000 0.000000 0.000000 0.000000 -0.000000 -1.049170 92.479200 -0.827732 88.063700 0.197669 3.609780 15.735700 0.000005 -0.000001 81.192000 86.124200 -80.846100 8.984550 -0.406207 -0.000000 -0.101962 -1.210410 0.690305 16.377300 -0.000001 -0.000001 2.134770 -2.294490 -0.206291 6.456720 -0.000001 -0.000000 3.440930 -2.939560 -0.079931 12.994200 -0.242716 4.980390 -85.743800 -10.438800 -67.669700 5.348090 -0.000007 -0.000001 -96.104900 -40.599000 -96.182800 24.328600 0.000019 0.000005 -8.174730 -3.939770 -64.439700 22.291600 -0.000001 0.000005 43.112000 5.454530 -4.789370 12.994500 -0.242716 -4.980390 91.802400 -4.916360 -69.837100 -5.348130 -0.000001 -0.000004 -91.820600 -31.238200 -101.685000 -24.328900 0.000322 -0.000009 11.288600 5.424110 -64.664200 -22.291500 -0.000108 -0.000004 51.310700 4.909890 9.187640 -2.192480 -6.469440 -0.000000 -175.059000 -8.668760 -2.991040 39.081100 -0.000007 -0.000012 -0.103729 0.258491 21.865100 40.985400 -0.000006 -0.000013 -0.285922 4.795370 -65.389200 11.754300 -0.000000 0.000003 -0.000072 -0.000774 -16.607400 -2.192510 6.469440 -0.000001 -179.948000 16.624700 -179.870000 -39.081100 -0.002282 -0.040193 -0.009901 0.040312 18.163900 -40.985400 0.000008 0.000006 4.509220 8.161100 -65.377400 -11.754300 -0.000006 -0.000006 -0.008552 -0.092476 -20.339300
0.000000 0.000000 0.000000 0.000000 0.000000 -0.000000 -1.009490 92.457100 -0.750357 88.088200 0.113130 3.763300 15.735700 0.000005 -0.000001 81.789400 86.109200 -81.394900 8.984550 -0.406207 -0.000000 -0.060115 -1.137940 0.787877 16.377300 -0.000001 -0.000001 2.415480 -2.283030 -0.187453 6.456720 -0.000001 -0.000000 3.622960 -3.007430 -0.330505 12.994200 -0.242716 4.980390 -85.728500 -10.487400 -67.689300 5.348090 -0.000007 -0.000001 -102.616000 -38.077300 -99.260200 24.328600 0.000019 0.000005 -14.355000 -6.555850 -65.954900 22.291600 -0.000001 0.000005 48.777100 5.508310 -6.813340 12.994500 -0.242716 -4.980390 91.712200 -4.710230 -69.997400 -5.348130 -0.000001 -0.000004 -91.470800 -31.349000 -101.189000 -24.328900 0.000322 -0.000009 11.998200 5.307920 -66.477900 -22.291500 -0.000108 -0.000004 53.931700 4.976750 7.817950 -2.192480 -6.469440 -0.000000 -175.069000 -8.671840 -2.816470 39.081100 -0.000007 -0.000012 -0.105328 0.261197 21.961800 40.985400 -0.000006 -0.000013 -0.278886 4.740240 -65.502100 11.754300 -0.000000 0.000003 -0.000065 -0.000712 -16.605100 -2.192510 6.469440 -0.000001 179.925000 16.595900 -179.730000 -39.081100 -0.002282 -0.040193 -0.013315 0.050266 18.315700 -40.985400 0.000008 0.000006 4.432580 8.211060 -65.487400 -11.754300 -0.000006 -0.000006 -0.008686 -0.093542 -20.382900
0.000000 0.000000 0.000000 0.000000 0.000000 -0.000000 -0.971595 92.431900 -0.675077 88.080400 0.097495 3.948350 15.735700 0.000005 -0.000001 82.053800 86.093200 -81.632000 8.984550 -0.406207 -0.000000 -0.023128 -1.108560 0.842887 16.377300 -0.000001 -0.000001 2.638620 -2.276610 -0.156091 6.456720 -0.000001 -0.000000 3.915770 -2.994780 -0.343297 12.994200 -0.242716 4.980390 -85.786000 -10.365300 -67.730300 5.348090 -0.000007 -0.000001 -103.646000 -36.057900 -99.627500 24.328600 0.000019 0.000005 -13.786600 -5.534280 -68.548200 22.291600 -0.000001 0.000005 53.726700 5.558870 -9.084370 12.994500 -0.242716 -4.980390 91.600300 -4.440540 -70.158200 -5.348130 -0.000001 -0.000004 -86.810400 -32.106800 -99.469300 -24.328900 0.000322 -0.000009 14.163900 5.646370 -68.701800 -22.291500 -0.000108 -0.000004 54.781800 5.057010 6.080860 -2.192480 -6.469440 -0.000000 -175.087000 -8.530090 -2.635220 39.081100 -0.000007 -0.000012 -0.105353 0.259334 22.109200 40.985400 -0.000006 -0.000013 -0.272916 4.548790 -65.650800 11.754300 -0.000000 0.000003 -0.000074 -0.000797 -16.608300 -2.192510 6.469440 -0.000001 179.811000 16.576200 -179.533000 -39.081100 -0.002282 -0.040193 -0.017064 0.061164 18.434800 -40.985400 0.000008 0.000006 4.279410 8.251960 -65.575500 -11.754300 -0.000006 -0.000006 -0.008356 -0.090916 -20.275600
0.000000 0.000000 0.000000 0.000000 0.000000 -0.000000 -0.939973 92.400700 -0.587939 88.104800 0.131574 4.186910 15.735700 0.000005 -0.000001 81.764900 86.052300 -81.347100 8.984550 -0.406207 -0.000000 0.052396 -1.158710 0.835656 16.377300 -0.000001 -0.000001 2.798320 -2.328340 -0.101560 6.456720 -0.000001 -0.000000 4.260260 -2.971860 -0.269790 12.994200 -0.242716 4.980390 -85.935400 -10.057400 -67.858500 5.348090 -0.000007 -0.000001 -99.021300 -35.505400 -97.712700 24.328600 0.000019 0.000005 -11.266800 -3.773940 -71.723700 22.291600 -0.000001 0.000005 55.629400 5.594410 -11.020800 12.994500 -0.242716 -4.980390 91.511200 -4.209330 -70.230300 -5.348130 -0.000001 -0.000004 -79.154300 -32.905500 -97.182300 -24.328900 0.000322 -0.000009 15.495200 5.545780 -70.783600 -22.291500 -0.000108 -0.000004 53.740000 5.105290 4.984560 -2.192480 -6.469440 -0.000000 -175.069000 -8.575260 -2.409880 39.081100 -0.000007 -0.000012 -0.106228 0.259434 22.267200 40.985400 -0.000006 -0.000013 -0.226837 4.680730 -65.796300 11.754300 -0.000000 0.000003 -0.000062 -0.000681 -16.603900 -2.192510 6.469440 -0.000001 179.655000 16.531900 -179.281000 -39.081100 -0.002282 -0.040193 -0.021723 0.074512 18.579700 -40.985400 0.000008 0.000006 3.973250 8.229280 -65.662200 -11.754300 -0.000006 -0.000006 -0.008295 -0.090420 -20.255300
